<svg xmlns="http://www.w3.org/2000/svg" width="402.048" height="331.013" viewBox="0 0 402.048 331.013"><defs><style>.a,.e{fill:none;}.a,.b{stroke:#fff;}.a{stroke-miterlimit:10;}.b,.c{fill:#fff;}.b{opacity:0.05;}.c{font-size:90px;font-family:AppleSDGothicNeo-ExtraBold, Apple SD Gothic Neo;font-weight:800;letter-spacing:-0.02em;}.d{stroke:none;}</style></defs><g transform="translate(-797 -333)"><g transform="translate(-1395.355 -3313.077)"><path class="a" d="M2608.407,3967.917c-10.053-18.727,4.624-36.07,4.624-36.07-17.127,4.365-16.531,31.489-16.531,31.489-6.5-41.639,8.064-56.4,8.064-56.4-24.731,14.427-21.64,47.527-21.64,47.527-8.244-69.947,13.4-92.972,13.4-92.972-40.189,27.719-32.135,98.613-32.135,98.613-8.43-116.153-74.3-142.882-74.3-142.882,58.757,63.655,47.677,146.346,47.677,146.346-13.31-69.521-65.484-85.236-65.484-85.236,50.922,44.453,42.291,98.68,42.291,98.68" transform="translate(-49.484)"/><path class="a" d="M2376.3,4015.8s2.789-48.1-31.367-75.282c0,0,16.087,18.124,15.71,64.825,0,0-2.467-27.882-26.864-27.185,0,0,26.488,6.732,17.426,42.053" transform="translate(0 -44.116)"/><path class="a" d="M2421.386,4032.133s2.793-19.043,15.962-23.785c0,0-13.459,14.564-7.368,34.436" transform="translate(-31.345 -68.387)"/><path class="a" d="M2710.837,4040.481s-2.333-19.369,15.4-24.034c0,0-11.2,7.013-5.6,24.034" transform="translate(-134.877 -71.284)"/><path class="a" d="M2542.829,3956.379s1.559-30.975-14.587-44.9c0,0,17.524,4.623,24.849,44.9,0,0-1.374-12.991.645-19.654" transform="translate(-69.579 -33.728)"/><path class="a" d="M2519.047,3990.071s-7.959-16.822-21.128-18.51c0,0,18.909,6.753,23.3,46.935" transform="translate(-58.729 -55.224)"/><path class="a" d="M2510.045,4032.785s-.789-15.523-16.569-21.289c0,0,11.835,8.894,8.285,21.289" transform="translate(-57.139 -69.513)"/></g><g class="b" transform="translate(797 333)"><circle class="d" cx="163" cy="163" r="163"/><circle class="e" cx="163" cy="163" r="162.5"/></g><g class="b" transform="translate(833 369)"><circle class="d" cx="127" cy="127" r="127"/><circle class="e" cx="127" cy="127" r="126.5"/></g><g class="b" transform="translate(866 402)"><circle class="d" cx="94" cy="94" r="94"/><circle class="e" cx="94" cy="94" r="93.5"/></g><text class="c" transform="translate(963 533)"><tspan x="-19.89" y="0">?</tspan></text></g></svg>